<svg xmlns="http://www.w3.org/2000/svg" viewBox="0 0 100 100">
  <defs>
    <linearGradient id="grad" x1="0%" y1="0%" x2="100%" y2="100%">
      <stop offset="0%" style="stop-color:#6366f1;stop-opacity:1" />
      <stop offset="100%" style="stop-color:#8b5cf6;stop-opacity:1" />
    </linearGradient>
  </defs>
  <rect width="100" height="100" rx="20" fill="url(#grad)"/>
  <path d="M20 55 Q20 40 35 35 L45 32 Q55 28 65 32 L75 35 Q85 40 85 55 L85 65 Q85 70 80 70 L75 70 Q70 70 70 65 L70 60 L30 60 L30 65 Q30 70 25 70 L20 70 Q15 70 15 65 L15 55 Z" fill="white"/>
  <circle cx="30" cy="70" r="8" fill="#1e1b4b"/>
  <circle cx="70" cy="70" r="8" fill="#1e1b4b"/>
  <circle cx="30" cy="70" r="4" fill="#94a3b8"/>
  <circle cx="70" cy="70" r="4" fill="#94a3b8"/>
</svg>
